<svg width="14" height="10" viewBox="0 0 14 10" fill="none" xmlns="http://www.w3.org/2000/svg">
<path d="M13.9229 1.00048C13.8593 0.864013 13.7579 0.748635 13.6308 0.667998C13.5036 0.587362 13.356 0.544845 13.2054 0.545478H0.794431C0.644961 0.547614 0.499079 0.591585 0.373326 0.672407C0.247573 0.753229 0.146981 0.867668 0.0829547 1.00275C0.0189284 1.13783 -0.00597033 1.28814 0.0110818 1.43665C0.028134 1.58516 0.0864548 1.72593 0.179431 1.84298L6.16243 9.15848C6.23699 9.24961 6.33081 9.3231 6.43714 9.37367C6.54347 9.42425 6.65969 9.45065 6.77743 9.45098C7.14368 9.45673 7.59068 9.49348 7.83743 9.15848L13.8207 1.84298C13.9162 1.72687 13.9766 1.58591 13.9947 1.43667C14.0129 1.28743 13.9881 1.1361 13.9232 1.00048H13.9229Z" fill="#9E9E9E"/>
</svg>
