<svg width="44" height="45" viewBox="0 0 44 45" fill="none" xmlns="http://www.w3.org/2000/svg">
<g filter="url(#filter0_d_646_3574)">
<path d="M10 1.97363H34C38.1421 1.97363 41.5 5.3315 41.5 9.47363V33.4736C41.5 37.6158 38.1421 40.9736 34 40.9736H10C5.85786 40.9736 2.5 37.6158 2.5 33.4736V9.47363C2.5 5.3315 5.85786 1.97363 10 1.97363Z" stroke="#EAECF0" shape-rendering="crispEdges"/>
<path d="M18.6665 24.807L21.9998 21.4736M21.9998 21.4736L25.3332 24.807M21.9998 21.4736V28.9736M28.6665 25.426C29.6844 24.5853 30.3332 23.3136 30.3332 21.8903C30.3332 19.359 28.2811 17.307 25.7498 17.307C25.5677 17.307 25.3974 17.212 25.3049 17.0551C24.2182 15.211 22.2119 13.9736 19.9165 13.9736C16.4647 13.9736 13.6665 16.7719 13.6665 20.2236C13.6665 21.9454 14.3627 23.5045 15.489 24.6349" stroke="#344054" stroke-width="1.66667" stroke-linecap="round" stroke-linejoin="round"/>
</g>
<defs>
<filter id="filter0_d_646_3574" x="0" y="0.473633" width="44" height="44" filterUnits="userSpaceOnUse" color-interpolation-filters="sRGB">
<feFlood flood-opacity="0" result="BackgroundImageFix"/>
<feColorMatrix in="SourceAlpha" type="matrix" values="0 0 0 0 0 0 0 0 0 0 0 0 0 0 0 0 0 0 127 0" result="hardAlpha"/>
<feOffset dy="1"/>
<feGaussianBlur stdDeviation="1"/>
<feComposite in2="hardAlpha" operator="out"/>
<feColorMatrix type="matrix" values="0 0 0 0 0.0627451 0 0 0 0 0.0941176 0 0 0 0 0.156863 0 0 0 0.05 0"/>
<feBlend mode="normal" in2="BackgroundImageFix" result="effect1_dropShadow_646_3574"/>
<feBlend mode="normal" in="SourceGraphic" in2="effect1_dropShadow_646_3574" result="shape"/>
</filter>
</defs>
</svg>
