<svg width="40" height="40" viewBox="0 0 40 40" fill="none" xmlns="http://www.w3.org/2000/svg">
<g clip-path="url(#clip0_325_440)">
<path d="M39.0671 19.5335C39.0671 8.74545 30.3216 0 19.5335 0C8.74545 0 0 8.74555 0 19.5336C0 30.3217 8.74555 39.0671 19.5336 39.0671C30.3217 39.0671 39.0671 30.3216 39.0671 19.5335Z" fill="white"/>
<path d="M17.0625 16.9016C18.4916 17.4235 20.0491 17.4235 21.4782 16.9016" stroke="#696969" stroke-width="1.5" stroke-linecap="round" stroke-linejoin="round"/>
<path d="M23.6092 11.67H15.8688C14.1586 11.67 12.7695 13.0671 12.7695 14.7694V26.0828C12.7695 27.5281 13.8053 28.1383 15.0739 27.4398L18.9923 25.2638C19.4098 25.031 20.0843 25.031 20.4938 25.2638L24.4121 27.4398C25.6808 28.1464 26.7166 27.5361 26.7166 26.0828V14.7694C26.7085 13.0671 25.3195 11.67 23.6092 11.67Z" stroke="#696969" stroke-width="1.5" stroke-linecap="round" stroke-linejoin="round"/>
</g>
<defs>
<clipPath id="clip0_325_440">
<rect width="40" height="40" fill="white"/>
</clipPath>
</defs>
</svg>
