<svg width="40" height="40" viewBox="0 0 40 40" fill="none" xmlns="http://www.w3.org/2000/svg">
<g clip-path="url(#clip0_326_156)">
<path d="M39.0671 19.5335C39.0671 8.74545 30.3216 0 19.5335 0C8.74545 0 0 8.74555 0 19.5336C0 30.3217 8.74555 39.0671 19.5336 39.0671C30.3217 39.0671 39.0671 30.3216 39.0671 19.5335Z" fill="white"/>
<path d="M39.0671 19.5335C39.0671 8.74545 30.3216 0 19.5335 0C8.74545 0 0 8.74555 0 19.5336C0 30.3217 8.74555 39.0671 19.5336 39.0671C30.3217 39.0671 39.0671 30.3216 39.0671 19.5335Z" fill="white"/>
<path d="M18 16.9004C19.4291 17.4223 20.9866 17.4223 22.4157 16.9004" stroke="white" stroke-width="1.5" stroke-linecap="round" stroke-linejoin="round"/>
<path d="M23.8397 12H16.0993C14.3891 12 13 13.3971 13 15.0994V26.4128C13 27.8581 14.0358 28.4683 15.3044 27.7698L19.2228 25.5938C19.6403 25.361 20.3148 25.361 20.7243 25.5938L24.6426 27.7698C25.9113 28.4764 26.9471 27.8661 26.9471 26.4128V15.0994C26.939 13.3971 25.55 12 23.8397 12Z" fill="#696969" stroke="#696969" stroke-width="1.5" stroke-linecap="round" stroke-linejoin="round"/>
<path d="M18 16.9C19.4291 17.4219 20.9866 17.4219 22.4157 16.9" stroke="white" stroke-width="1.5" stroke-linecap="round" stroke-linejoin="round"/>
</g>
<defs>
<clipPath id="clip0_326_156">
<rect width="40" height="40" fill="white"/>
</clipPath>
</defs>
</svg>
