<svg width="40" height="40" viewBox="0 0 40 40" fill="none" xmlns="http://www.w3.org/2000/svg">
<rect width="39.0671" height="39.0671" rx="19.5335" fill="white"/>
<path d="M24.0156 11.6667H15.9823C14.2073 11.6667 12.7656 13.1167 12.7656 14.8834V26.625C12.7656 28.125 13.8406 28.7584 15.1573 28.0334L19.224 25.775C19.6573 25.5334 20.3573 25.5334 20.7823 25.775L24.849 28.0334C26.1656 28.7667 27.2406 28.1334 27.2406 26.625V14.8834C27.2323 13.1167 25.7906 11.6667 24.0156 11.6667ZM22.0823 19.5H17.9156C17.574 19.5 17.2906 19.2167 17.2906 18.875C17.2906 18.5334 17.574 18.25 17.9156 18.25H22.0823C22.424 18.25 22.7073 18.5334 22.7073 18.875C22.7073 19.2167 22.424 19.5 22.0823 19.5Z" fill="#696969"/>
</svg>
