<svg width="40" height="40" viewBox="0 0 40 40" fill="none" xmlns="http://www.w3.org/2000/svg">
<rect width="39.0671" height="39.0671" rx="19.5335" fill="white"/>
<path d="M17.0625 16.9016C18.4916 17.4235 20.0491 17.4235 21.4782 16.9016" stroke="#696969" stroke-width="1.5" stroke-linecap="round" stroke-linejoin="round"/>
<path d="M23.1405 11.2412H15.4001C13.6899 11.2412 12.3008 12.6383 12.3008 14.3406V25.654C12.3008 27.0993 13.3366 27.7095 14.6052 27.011L18.5236 24.835C18.9411 24.6022 19.6156 24.6022 20.0251 24.835L23.9434 27.011C25.2121 27.7176 26.2479 27.1073 26.2479 25.654V14.3406C26.2398 12.6383 24.8508 11.2412 23.1405 11.2412Z" stroke="#696969" stroke-width="1.5" stroke-linecap="round" stroke-linejoin="round"/>
<path d="M23.1405 11.2412H15.4001C13.6899 11.2412 12.3008 12.6383 12.3008 14.3406V25.654C12.3008 27.0993 13.3366 27.7095 14.6052 27.011L18.5236 24.835C18.9411 24.6022 19.6156 24.6022 20.0251 24.835L23.9434 27.011C25.2121 27.7176 26.2479 27.1073 26.2479 25.654V14.3406C26.2398 12.6383 24.8508 11.2412 23.1405 11.2412Z" stroke="#696969" stroke-width="1.5" stroke-linecap="round" stroke-linejoin="round"/>
</svg>
