<svg width="62" height="62" viewBox="0 0 62 62" fill="none" xmlns="http://www.w3.org/2000/svg">
<circle cx="31.0017" cy="31" r="30.7692" fill="#040273"/>
<path d="M41.9108 22.3461H37.7819L37.3012 20.9038C37.0695 20.2035 36.6227 19.5942 36.0245 19.1625C35.4262 18.7309 34.7071 18.4991 33.9694 18.5H28.0291C27.2916 18.4994 26.5727 18.7314 25.9747 19.163C25.3768 19.5946 24.9301 20.2037 24.6983 20.9038L24.2166 22.3461H20.0877C19.1567 22.3472 18.2641 22.7174 17.6058 23.3758C16.9475 24.0341 16.5772 24.9267 16.5762 25.8577V39.9923C16.5782 40.9226 16.9489 41.8142 17.6072 42.4717C18.2654 43.1292 19.1574 43.499 20.0877 43.5H41.9146C42.845 43.4979 43.7366 43.1272 44.3941 42.469C45.0515 41.8108 45.4213 40.9188 45.4223 39.9884V25.8538C45.4203 24.9235 45.0496 24.0319 44.3913 23.3744C43.7331 22.7169 42.8411 22.3472 41.9108 22.3461ZM43.4992 39.9884C43.4987 40.4096 43.3312 40.8133 43.0334 41.1111C42.7357 41.4089 42.3319 41.5764 41.9108 41.5769H20.0877C19.6666 41.5764 19.2628 41.4089 18.9651 41.1111C18.6673 40.8133 18.4998 40.4096 18.4992 39.9884V25.8538C18.5008 25.4334 18.6687 25.0306 18.9664 24.7337C19.2641 24.4367 19.6672 24.2697 20.0877 24.2692H24.9098C25.1116 24.2691 25.3081 24.2055 25.4717 24.0874C25.6353 23.9694 25.7576 23.8029 25.8214 23.6115L26.5223 21.5086C26.6276 21.1923 26.8298 20.9172 27.1003 20.7224C27.3707 20.5275 27.6957 20.4228 28.0291 20.4231H33.9694C34.3029 20.4227 34.6281 20.5275 34.8986 20.7226C35.1691 20.9176 35.3712 21.193 35.4762 21.5096L36.1771 23.6115C36.2409 23.8029 36.3632 23.9694 36.5268 24.0874C36.6904 24.2055 36.8869 24.2691 37.0887 24.2692H41.9108C42.3319 24.2697 42.7357 24.4372 43.0334 24.735C43.3312 25.0328 43.4987 25.4365 43.4992 25.8577V39.9884Z" fill="white"/>
<path d="M31.0006 25.2308C29.5743 25.2308 28.18 25.6537 26.9941 26.4461C25.8082 27.2385 24.8838 28.3648 24.338 29.6826C23.7922 31.0003 23.6494 32.4503 23.9276 33.8492C24.2059 35.2481 24.8927 36.5331 25.9013 37.5416C26.9098 38.5502 28.1948 39.237 29.5937 39.5153C30.9926 39.7935 32.4426 39.6507 33.7603 39.1049C35.0781 38.5591 36.2044 37.6347 36.9968 36.4488C37.7892 35.2629 38.2121 33.8686 38.2121 32.4423C38.2101 30.5303 37.4497 28.6972 36.0977 27.3452C34.7457 25.9932 32.9126 25.2328 31.0006 25.2308ZM31.0006 37.7308C29.9546 37.7308 28.9322 37.4206 28.0625 36.8395C27.1928 36.2584 26.515 35.4324 26.1147 34.4661C25.7144 33.4998 25.6097 32.4364 25.8138 31.4106C26.0178 30.3847 26.5215 29.4424 27.2611 28.7028C28.0007 27.9632 28.943 27.4595 29.9689 27.2554C30.9947 27.0514 32.0581 27.1561 33.0244 27.5564C33.9907 27.9567 34.8167 28.6345 35.3978 29.5042C35.9789 30.3739 36.2891 31.3963 36.2891 32.4423C36.2875 33.8444 35.7299 35.1887 34.7384 36.1801C33.747 37.1716 32.4027 37.7292 31.0006 37.7308Z" fill="white"/>
<path d="M40.6158 28.1154C41.1469 28.1154 41.5774 27.6849 41.5774 27.1538C41.5774 26.6228 41.1469 26.1923 40.6158 26.1923C40.0848 26.1923 39.6543 26.6228 39.6543 27.1538C39.6543 27.6849 40.0848 28.1154 40.6158 28.1154Z" fill="white"/>
</svg>
