<svg width="24" height="22" viewBox="0 0 24 22" fill="none" xmlns="http://www.w3.org/2000/svg">
<path d="M17.9268 0C19.536 0 21.0839 0.636149 22.2227 1.77734C23.3626 2.91604 23.9999 4.45173 24 6.05957V15.54C23.9999 18.888 21.2759 21.5996 17.9268 21.5996H6.07227C2.72311 21.5996 6.19798e-05 18.888 0 15.54V6.05957C0.000216263 2.71177 2.7112 0 6.07227 0H17.9268ZM19.2842 6.24023C19.0322 6.22703 18.7916 6.31247 18.6104 6.48047L13.2002 10.7998C12.5042 11.377 11.5066 11.377 10.7998 10.7998L5.39941 6.48047C5.02622 6.20451 4.51098 6.24047 4.2002 6.56445C3.87637 6.88834 3.83979 7.40371 4.11426 7.76367L4.27148 7.91992L9.73145 12.1797C10.4034 12.7077 11.2191 12.9961 12.0723 12.9961C12.9229 12.996 13.7522 12.7076 14.4229 12.1797L19.8359 7.84766L19.9316 7.75195C20.2184 7.40396 20.2189 6.89976 19.9189 6.55176C19.7522 6.37305 19.5228 6.26431 19.2842 6.24023Z" fill="#9E9E9E"/>
</svg>
