<svg width="26" height="28" viewBox="0 0 26 28" fill="none" xmlns="http://www.w3.org/2000/svg">
<g clip-path="url(#clip0_57_968)">
<path d="M25.9859 14.2612C25.9859 13.114 25.8974 12.2769 25.706 11.4088H13.2585V16.5865H20.5649C20.4177 17.8732 19.6222 19.811 17.8545 21.1131L17.8297 21.2864L21.7654 24.495L22.038 24.5236C24.5422 22.0897 25.9859 18.5087 25.9859 14.2612Z" fill="#4285F4"/>
<path d="M13.2588 27.9038C16.8383 27.9038 19.8433 26.6636 22.0383 24.5243L17.8547 21.1138C16.7352 21.9354 15.2327 22.509 13.2588 22.509C9.75292 22.509 6.77734 20.0752 5.71663 16.7112L5.56115 16.7251L1.4688 20.0581L1.41528 20.2147C3.5954 24.7723 8.07355 27.9038 13.2588 27.9038Z" fill="#34A853"/>
<path d="M5.71667 16.7119C5.43679 15.8438 5.27482 14.9136 5.27482 13.9525C5.27482 12.9913 5.43679 12.0612 5.70194 11.1931L5.69453 11.0082L1.5509 7.6217L1.41533 7.68957C0.5168 9.58085 0.0012207 11.7047 0.0012207 13.9525C0.0012207 16.2003 0.5168 18.324 1.41533 20.2153L5.71667 16.7119Z" fill="#FBBC05"/>
<path d="M13.2588 5.39434C15.7482 5.39434 17.4275 6.52598 18.385 7.47168L22.1266 3.62713C19.8287 1.37933 16.8383 -0.000366211 13.2588 -0.000366211C8.07354 -0.000366211 3.5954 3.13104 1.41528 7.68863L5.7019 11.1922C6.77733 7.8282 9.75291 5.39434 13.2588 5.39434Z" fill="#EB4335"/>
</g>
<defs>
<clipPath id="clip0_57_968">
<rect width="26" height="28" fill="white"/>
</clipPath>
</defs>
</svg>
