<svg width="80" height="81" viewBox="0 0 80 81" fill="none" xmlns="http://www.w3.org/2000/svg">
<path fill-rule="evenodd" clip-rule="evenodd" d="M44 64.2131C46.1217 64.2131 48.1566 65.056 49.6569 66.5563C51.1571 68.0566 52 70.0914 52 72.2131C52 74.3349 51.1571 76.3697 49.6569 77.87C48.1566 79.3703 46.1217 80.2131 44 80.2131C41.8783 80.2131 39.8434 79.3703 38.3431 77.87C36.8429 76.3697 36 74.3349 36 72.2131C36 70.0914 36.8429 68.0566 38.3431 66.5563C39.8434 65.056 41.8783 64.2131 44 64.2131ZM18.964 52.2131C21.6162 52.2131 24.1597 53.2667 26.0351 55.1421C27.9104 57.0174 28.964 59.561 28.964 62.2131C28.964 64.8653 27.9104 67.4088 26.0351 69.2842C24.1597 71.1596 21.6162 72.2131 18.964 72.2131C16.3118 72.2131 13.7683 71.1596 11.8929 69.2842C10.0176 67.4088 8.964 64.8653 8.964 62.2131C8.964 59.561 10.0176 57.0174 11.8929 55.1421C13.7683 53.2667 16.3118 52.2131 18.964 52.2131ZM65.276 54.2131C67.3977 54.2131 69.4326 55.056 70.9329 56.5563C72.4331 58.0566 73.276 60.0914 73.276 62.2131C73.276 64.3349 72.4331 66.3697 70.9329 67.87C69.4326 69.3703 67.3977 70.2131 65.276 70.2131C63.1543 70.2131 61.1194 69.3703 59.6191 67.87C58.1189 66.3697 57.276 64.3349 57.276 62.2131C57.276 60.0914 58.1189 58.0566 59.6191 56.5563C61.1194 55.056 63.1543 54.2131 65.276 54.2131ZM74 37.4891C75.5913 37.4891 77.1174 38.1213 78.2426 39.2465C79.3679 40.3717 80 41.8978 80 43.4891C80 45.0804 79.3679 46.6066 78.2426 47.7318C77.1174 48.857 75.5913 49.4891 74 49.4891C72.4087 49.4891 70.8826 48.857 69.7574 47.7318C68.6321 46.6066 68 45.0804 68 43.4891C68 41.8978 68.6321 40.3717 69.7574 39.2465C70.8826 38.1213 72.4087 37.4891 74 37.4891ZM10 24.2131C12.6522 24.2131 15.1957 25.2667 17.0711 27.1421C18.9464 29.0174 20 31.561 20 34.2131C20 36.8653 18.9464 39.4088 17.0711 41.2842C15.1957 43.1596 12.6522 44.2131 10 44.2131C7.34784 44.2131 4.8043 43.1596 2.92893 41.2842C1.05357 39.4088 0 36.8653 0 34.2131C0 31.561 1.05357 29.0174 2.92893 27.1421C4.8043 25.2667 7.34784 24.2131 10 24.2131ZM71.144 21.0411C72.2049 21.0411 73.2223 21.4626 73.9724 22.2127C74.7226 22.9629 75.144 23.9803 75.144 25.0411C75.144 26.102 74.7226 27.1194 73.9724 27.8696C73.2223 28.6197 72.2049 29.0411 71.144 29.0411C70.0831 29.0411 69.0657 28.6197 68.3156 27.8696C67.5654 27.1194 67.144 26.102 67.144 25.0411C67.144 23.9803 67.5654 22.9629 68.3156 22.2127C69.0657 21.4626 70.0831 21.0411 71.144 21.0411ZM32 0.213135C35.1826 0.213135 38.2348 1.47742 40.4853 3.72785C42.7357 5.97829 44 9.03054 44 12.2131C44 15.3957 42.7357 18.448 40.4853 20.6984C38.2348 22.9489 35.1826 24.2131 32 24.2131C28.8174 24.2131 25.7652 22.9489 23.5147 20.6984C21.2643 18.448 20 15.3957 20 12.2131C20 9.03054 21.2643 5.97829 23.5147 3.72785C25.7652 1.47742 28.8174 0.213135 32 0.213135V0.213135ZM62 12.2131C62.5304 12.2131 63.0391 12.4238 63.4142 12.7989C63.7893 13.174 64 13.6827 64 14.2131C64 14.7436 63.7893 15.2523 63.4142 15.6273C63.0391 16.0024 62.5304 16.2131 62 16.2131C61.4696 16.2131 60.9609 16.0024 60.5858 15.6273C60.2107 15.2523 60 14.7436 60 14.2131C60 13.6827 60.2107 13.174 60.5858 12.7989C60.9609 12.4238 61.4696 12.2131 62 12.2131Z" fill="#040273"/>
</svg>
