<svg width="25" height="30" viewBox="0 0 25 30" fill="none" xmlns="http://www.w3.org/2000/svg">
<path d="M12.7969 0.818359C17.1293 0.818359 20.6152 4.22781 20.6152 8.43652V10.6006C23.0468 11.3596 24.8184 13.5614 24.8184 16.1904V23.1592C24.8184 26.4138 22.1205 29.0535 18.7939 29.0537H6.84473C3.51664 29.0536 0.818359 26.4138 0.818359 23.1592V16.1904C0.818359 13.5614 2.59137 11.3596 5.02148 10.6006V8.43652C5.03583 4.22785 8.52192 0.818435 12.7969 0.818359ZM12.8115 16.8896C12.1229 16.8896 11.5635 17.437 11.5635 18.1104V21.2246C11.5635 21.912 12.1229 22.459 12.8115 22.459C13.5144 22.4589 14.0742 21.912 14.0742 21.2246V18.1104C14.0742 17.437 13.5144 16.8897 12.8115 16.8896ZM12.8252 3.27344C9.91323 3.27369 7.54657 5.57449 7.53223 8.4082V10.2959H18.1045V8.43555C18.1043 5.58785 15.7372 3.27344 12.8252 3.27344Z" fill="#9E9E9E"/>
</svg>
