<svg width="29" height="24" viewBox="0 0 29 24" fill="none" xmlns="http://www.w3.org/2000/svg">
<path d="M24.1562 0.41677C24.5659 0.0173441 25.2073 0.0173089 25.6034 0.41677C26.0132 0.816461 26.0132 1.47802 25.6034 1.87771L23.1171 4.3865C25.0979 6.20577 26.7783 8.65875 28.0351 11.6082C28.1444 11.87 28.1444 12.1736 28.0351 12.4217C25.1117 19.2851 19.9071 23.3924 14.1151 23.3924H14.1015C11.4653 23.3923 8.9383 22.524 6.71183 20.9392L4.06144 23.6131C3.85655 23.8197 3.59632 23.9158 3.33683 23.9158C3.07749 23.9157 2.80432 23.8195 2.61319 23.6131C2.27172 23.2685 2.21705 22.7168 2.49015 22.3172L2.53116 22.2615L22.7353 1.87771C22.7626 1.85018 22.79 1.82223 22.8036 1.7947C22.8308 1.76728 22.8583 1.74009 22.872 1.71267L24.1562 0.41677ZM14.1191 0.656028C16.0723 0.656028 17.9712 1.12468 19.7196 2.00661L15.1571 6.61013C14.8294 6.55502 14.4741 6.51345 14.1191 6.51345C11.1002 6.51353 8.65519 8.98125 8.65519 12.0271C8.6552 12.3853 8.69629 12.7434 8.75089 13.074L3.6962 18.1736C2.33023 16.5749 1.14166 14.6454 0.199132 12.4265C0.0898843 12.1785 0.0898608 11.8749 0.199132 11.6131C3.12246 4.74963 8.32716 0.656103 14.1054 0.656028H14.1191ZM17.1347 10.4226C17.3805 10.8911 17.5164 11.4426 17.5165 12.0213C17.5165 13.9095 15.9866 15.4539 14.1151 15.4539C13.5415 15.4538 12.9955 15.3152 12.5312 15.0672L11.0419 16.5701C11.9161 17.1626 12.9815 17.5212 14.1151 17.5213C17.1204 17.5213 19.5663 15.0534 19.5663 12.0213C19.5662 10.8775 19.2103 9.80265 18.623 8.92068L17.1347 10.4226Z" fill="#9E9E9E"/>
</svg>
