<svg width="140" height="140" viewBox="0 0 140 140" fill="none" xmlns="http://www.w3.org/2000/svg">
<path d="M70 99.1667C55.6325 99.1667 42.8692 87.5584 37.5725 69.9942C32.76 69.7142 29.1667 63.5425 29.1667 55.4167C29.1667 52.7975 29.5575 50.2425 30.2983 48.0259C30.8058 46.4975 32.4567 45.6692 33.985 46.1825C35.5192 46.69 36.3417 48.3467 35.8342 49.8692C35.2858 51.5025 35 53.4217 35 55.4167C35 61.0634 37.1875 64.1667 37.9167 64.1667C38.71 63.6767 39.7775 63.5192 40.6467 63.875C41.51 64.225 42.245 64.9017 42.4725 65.8059C46.5558 82.2734 57.6158 93.3334 70 93.3334C82.3842 93.3334 93.4442 82.2734 97.5275 65.8059C97.755 64.9017 98.3967 64.155 99.26 63.805C100.123 63.455 101.109 63.5425 101.897 64.0325C102.9 64.1609 105 61.0575 105 55.4167C105 53.4217 104.714 51.5025 104.166 49.8692C103.658 48.3409 104.481 46.69 106.009 46.1825C107.538 45.6692 109.188 46.4975 109.696 48.0259C110.443 50.2425 110.833 52.7975 110.833 55.4167C110.833 63.5425 107.24 69.7142 102.427 69.9942C97.1308 87.5584 84.3675 99.1667 70 99.1667Z" fill="#040273"/>
<path d="M114.538 96.9851L99.5342 91.7643C98.4375 91.3851 97.2183 91.6943 96.425 92.5459C89.0692 100.578 79.6833 105 70 105C60.3167 105 50.9308 100.578 43.575 92.5518C42.7875 91.7001 41.5683 91.3909 40.4658 91.7701L25.4625 96.9909C10.2317 102.282 0 116.673 0 132.802V137.083C0 138.693 1.30667 140 2.91667 140H137.083C138.693 140 140 138.693 140 137.083V132.802C140 116.673 129.768 102.282 114.538 96.9851Z" fill="#040273"/>
<path d="M70 0C47.4833 0 29.1667 18.3167 29.1667 40.8333C29.1667 43.54 29.4992 46.3167 30.2167 49.5775C30.5083 50.9133 31.6925 51.87 33.0633 51.87C36.365 51.87 40.355 52.465 40.3958 52.4708C40.565 52.4942 40.7108 52.5058 40.8917 52.5C42.4842 52.5233 43.8667 51.2167 43.8667 49.5833C43.8667 49.2275 43.8025 48.895 43.6917 48.58C43.3358 42.7583 43.7033 36.8725 44.5142 35H44.9575C55.0433 35 60.0717 31.7975 62.3933 27.755C68.6817 33.9617 81.3283 39.9467 93.555 40.74C94.2492 45.64 96.3958 50.5167 96.5067 50.7617C96.9733 51.8292 98.0233 52.5 99.1667 52.5C99.2425 52.5 99.3242 52.5 99.4058 52.4942L107.176 51.8583C108.453 51.7533 109.509 50.8258 109.789 49.5775C110.501 46.3167 110.833 43.54 110.833 40.8333C110.833 18.3167 92.5167 0 70 0Z" fill="#040273"/>
<path d="M61.25 58.3333H55.4167C53.8067 58.3333 52.5 57.0267 52.5 55.4167C52.5 53.8067 53.8067 52.5 55.4167 52.5H61.25C62.86 52.5 64.1667 53.8067 64.1667 55.4167C64.1667 57.0267 62.86 58.3333 61.25 58.3333Z" fill="#040273"/>
<path d="M84.5833 58.3333H78.75C77.14 58.3333 75.8333 57.0267 75.8333 55.4167C75.8333 53.8067 77.14 52.5 78.75 52.5H84.5833C86.1933 52.5 87.5 53.8067 87.5 55.4167C87.5 57.0267 86.1933 58.3333 84.5833 58.3333Z" fill="#040273"/>
</svg>
