<svg width="44" height="44" viewBox="0 0 44 44" fill="none" xmlns="http://www.w3.org/2000/svg">
<rect width="44" height="44" rx="22" fill="#040273" fill-opacity="0.1"/>
<path d="M19.4746 18.2818C21.1895 18.908 23.0585 18.908 24.7734 18.2818" stroke="#040273" stroke-width="1.5" stroke-linecap="round" stroke-linejoin="round"/>
<path d="M26.7674 11.4895H17.479C15.4267 11.4895 13.7598 13.166 13.7598 15.2087V28.7848C13.7598 30.5192 15.0027 31.2515 16.5251 30.4132L21.2271 27.802C21.7282 27.5226 22.5375 27.5226 23.0289 27.802L27.7309 30.4132C29.2533 31.2611 30.4963 30.5288 30.4963 28.7848V15.2087C30.4866 13.166 28.8197 11.4895 26.7674 11.4895Z" stroke="#040273" stroke-width="1.5" stroke-linecap="round" stroke-linejoin="round"/>
<path d="M26.7674 11.4895H17.479C15.4267 11.4895 13.7598 13.166 13.7598 15.2087V28.7848C13.7598 30.5192 15.0027 31.2515 16.5251 30.4132L21.2271 27.802C21.7282 27.5226 22.5375 27.5226 23.0289 27.802L27.7309 30.4132C29.2533 31.2611 30.4963 30.5288 30.4963 28.7848V15.2087C30.4866 13.166 28.8197 11.4895 26.7674 11.4895Z" stroke="#040273" stroke-width="1.5" stroke-linecap="round" stroke-linejoin="round"/>
</svg>
